<?xml version="1.0" standalone="no"?>
<!DOCTYPE svg PUBLIC "-//W3C//DTD SVG 20010904//EN"
 "http://www.w3.org/TR/2001/REC-SVG-20010904/DTD/svg10.dtd">
<svg version="1.0" xmlns="http://www.w3.org/2000/svg"
 width="792.000000pt" height="792.000000pt" viewBox="0 0 792.000000 792.000000"
 preserveAspectRatio="xMidYMid meet">
<metadata>
Created by potrace 1.14, written by Peter Selinger 2001-2017
</metadata>
<g transform="translate(0.000000,792.000000) scale(0.100000,-0.100000)"
fill="#000000" stroke="none">
<path d="M1805 6739 c-213 -31 -436 -126 -620 -265 -88 -66 -245 -226 -317
-324 -143 -193 -244 -435 -283 -675 -16 -96 -19 -330 -6 -405 7 -35 9 -18 10
76 4 392 171 766 468 1044 459 429 1117 508 1637 196 326 -196 560 -502 666
-871 33 -115 37 -113 14 6 -118 622 -633 1133 -1229 1219 -83 11 -256 11 -340
-1z"/>
<path d="M1855 6470 c-514 -66 -943 -468 -1050 -985 -21 -100 -29 -281 -17
-360 l10 -60 1 65 c11 475 286 884 722 1072 379 163 823 127 1165 -94 116 -75
295 -260 361 -372 53 -89 100 -200 129 -299 l14 -52 -5 56 c-6 68 -47 212 -83
294 -162 368 -495 640 -880 720 -93 19 -276 27 -367 15z"/>
<path d="M2768 5615 c-16 -35 3 -75 35 -75 30 0 47 18 47 50 0 52 -61 71 -82
25z"/>
<path d="M986 5620 c-40 -12 -74 -47 -86 -89 -20 -72 19 -128 112 -163 66 -24
81 -37 76 -70 -4 -33 -75 -38 -125 -8 -19 11 -37 20 -38 18 -15 -17 -34 -71
-29 -79 13 -21 89 -49 134 -49 60 0 111 27 132 70 14 27 18 30 18 14 0 -12 13
-36 29 -53 23 -24 37 -31 68 -31 21 0 45 4 53 10 9 5 19 5 27 -2 7 -5 24 -7
39 -4 l26 7 -4 130 -3 131 -34 30 c-31 28 -39 30 -92 26 -74 -5 -91 -19 -77
-59 9 -25 14 -29 32 -24 50 16 67 17 81 5 26 -21 17 -30 -23 -24 -47 7 -97
-15 -108 -48 -6 -20 -8 -19 -25 14 -18 35 -49 54 -152 96 -15 7 -30 19 -33 27
-17 43 65 61 122 26 l31 -19 17 35 c21 43 12 56 -51 77 -51 18 -74 19 -117 6z
m344 -294 c31 -38 -9 -89 -54 -68 -45 20 -30 82 20 82 12 0 27 -7 34 -14z"/>
<path d="M1870 5411 l0 -209 31 -11 c44 -15 123 -14 163 3 39 16 75 59 83 99
6 29 6 29 30 -19 33 -69 64 -89 140 -89 55 0 65 3 94 30 78 74 79 185 1 259
-36 33 -105 45 -152 26 -37 -16 -90 -74 -90 -100 0 -29 -17 -24 -25 7 -17 71
-75 109 -150 101 l-45 -6 0 59 0 59 -40 0 -40 0 0 -209z m180 -1 c14 -14 20
-33 20 -65 0 -59 -26 -87 -78 -83 l-37 3 -3 69 c-2 38 -1 75 2 83 8 21 73 16
96 -7z m317 -6 c22 -22 25 -32 20 -67 -4 -26 -14 -49 -27 -59 -49 -40 -108
-10 -117 59 -5 35 -2 45 20 67 15 15 37 26 52 26 15 0 37 -11 52 -26z"/>
<path d="M1460 5500 l-25 -10 3 -150 3 -150 40 0 39 0 0 125 0 125 24 0 c47 0
56 -22 56 -141 l0 -109 40 0 40 0 0 119 c0 113 1 119 22 124 12 3 30 2 40 -4
16 -9 18 -23 18 -124 l0 -115 41 0 41 0 -4 131 -3 131 -34 30 c-32 28 -37 30
-90 24 -65 -8 -63 -8 -156 -1 -38 2 -81 0 -95 -5z"/>
<path d="M2954 5500 c-31 -12 -72 -66 -84 -111 -20 -72 11 -152 72 -189 56
-34 149 -22 188 25 11 13 9 19 -10 40 -21 22 -25 23 -40 10 -29 -27 -73 -29
-103 -5 -50 40 -37 49 76 52 l102 3 -2 38 c-3 53 -31 106 -67 128 -32 20 -95
24 -132 9z m109 -82 l22 -23 -64 -3 c-35 -2 -66 0 -70 3 -10 11 39 45 65 45
13 0 34 -10 47 -22z"/>
<path d="M2480 5391 c0 -116 8 -152 42 -188 28 -30 85 -31 122 -2 l26 20 0
-21 c0 -19 4 -20 38 -14 20 4 37 7 37 8 0 0 -1 70 -3 154 l-3 152 -40 0 -39 0
0 -101 c0 -116 -8 -139 -50 -139 -42 0 -50 23 -50 139 l0 101 -40 0 -40 0 0
-109z"/>
<path d="M2770 5345 l0 -155 40 0 40 0 0 155 0 155 -40 0 -40 0 0 -155z"/>
<path d="M3391 5279 c-4 -335 -137 -654 -381 -912 -91 -96 -230 -209 -326
-265 -47 -27 -53 -29 -67 -15 -14 15 -9 21 56 66 92 64 238 210 306 307 105
149 192 353 222 520 14 79 15 291 2 349 -6 25 -9 8 -10 -65 -3 -174 -58 -332
-174 -509 -113 -170 -300 -352 -484 -471 -33 -21 -62 -40 -64 -41 -3 -2 22
-31 55 -65 32 -34 -73 62 -234 213 -161 151 -296 275 -300 276 -4 1 -32 -27
-62 -63 -30 -35 -136 -144 -235 -241 -99 -98 -167 -164 -152 -147 l27 30 -34
17 c-19 9 -75 41 -125 72 -315 195 -503 398 -587 635 -22 62 -23 63 -17 20 18
-136 94 -324 190 -468 74 -112 240 -283 350 -361 l86 -61 26 22 c14 12 -26
-30 -89 -94 -62 -65 -112 -119 -110 -121 3 -2 41 -18 85 -35 68 -28 93 -32
168 -32 l87 0 0 -107 c0 -60 -3 -159 -7 -220 l-6 -113 -173 0 -173 0 -40 -53
c-35 -46 -39 -57 -34 -94 5 -38 1 -47 -62 -137 -36 -53 -62 -96 -56 -96 6 0
11 -19 11 -42 0 -34 -12 -60 -72 -152 l-72 -110 3 -77 2 -78 -123 -213 -123
-213 3 -152 3 -153 1335 0 1334 0 0 144 c0 119 3 145 15 148 10 2 -24 68 -120
231 -128 216 -135 232 -135 282 0 38 4 54 15 59 12 4 -3 34 -70 133 -63 95
-85 136 -85 160 0 23 5 33 15 33 8 0 15 2 15 5 0 3 -31 48 -70 101 -66 91 -85
134 -59 134 16 0 5 23 -42 85 l-41 55 -164 0 -164 0 0 220 0 220 83 0 c63 0
102 6 157 25 40 14 85 25 99 25 25 0 23 3 -24 48 l-50 48 84 55 c105 67 297
255 368 359 97 143 171 313 209 485 19 85 29 369 16 445 -9 52 -10 50 -11 -51z
m-700 -1256 c13 -16 12 -17 -3 -4 -17 13 -22 21 -14 21 2 0 10 -8 17 -17z"/>
<path d="M591 4994 c-2 -79 70 -327 129 -444 48 -96 147 -235 226 -319 76 -80
219 -196 305 -245 l45 -26 38 39 38 39 -53 28 c-107 53 -236 151 -344 259
-186 185 -303 384 -365 620 -11 39 -19 60 -19 49z"/>
</g>
</svg>
